<?xml version="1.0" encoding="UTF-8"?>
<svg id="Layer_2" data-name="Layer 2" xmlns="http://www.w3.org/2000/svg" viewBox="0 0 568.67 111.9">
  <defs>
    <style>
      .cls-1 {
        fill: #00e28b;
      }

      .cls-2 {
        isolation: isolate;
      }

      .cls-3 {
        fill: #fff;
      }
    </style>
  </defs>
  <g id="Layer_1-2" data-name="Layer 1">
    <g class="cls-2">
      <g>
        <path class="cls-1" d="M71,88.3c-2.2,6.8-11.1,15.6-27.3,16.3C18,105.7,0,90.8,0,53.2V0h46.3v59.6c0,18.9,8.5,28.6,24.6,28.6M88.8,0c-9.9,0-17.7,8-17.7,17.7v70.5h2.1c24.4,0,44.3-19.7,44.3-44.3V0h-28.7Z"/>
        <path class="cls-3" d="M320.8,52.5V14.1h16.8v76.8h-16.8v-38.5h0v.1ZM416.7,58.5c-2.1-3.2-5-5.5-8.4-7.2-3-1.4-6-2.4-9.3-3.2-4.9-1.2-9.9-2.2-14.9-3.3-3.5-.8-6.9-1.7-10.2-3.3-4.2-2.1-5.1-6.5-3.5-10.1,1-2.3,3-3.5,5.1-4.3,4-1.6,8.2-1.8,12.4-1.4,3.1.3,5.9,1.3,8.4,3.2,2.3,1.8,3.7,4,4.3,6.8.3,1.1.4,2.2.6,3.4l16.1-2.2c-.2-2.2-.7-4.9-1.5-7.3-1.8-5-4.9-8.9-9.4-11.8-4.5-3-9.6-4.4-14.9-5.1-3.5-.4-6.9-.4-10.4-.3-3.3.2-6.4.6-9.5,1.4-4.3,1.1-8.3,2.8-11.8,5.6-3.3,2.7-5.5,5.9-6.6,10.1-.8,3-.8,5.9-.4,8.9.3,2.6,1.1,5,2.5,7.3,2.3,3.5,5.3,6.1,9.1,7.9,2,.9,4,1.6,6.1,2.3,5.2,1.7,10.6,2.6,16.1,3.6,3.5.7,6.9,1.6,10.2,3,1.4.6,2.8,1.3,3.8,2.5,1.4,1.6,1.8,3.5,1.5,5.5-.3,2.4-1.3,4.2-3.2,5.7-2.4,1.8-5.2,2.5-8.1,2.9s-5.7.3-8.6,0c-3.3-.4-6.4-1.2-9.2-3-2.7-1.7-4.4-4-5.2-7.1-.2-.9-.4-1.9-.6-2.9l-16.4,2.2c0,2.2.6,4.9,1.3,6.9,1.9,5.3,5.3,9.2,10.1,12,4.9,3,10.5,4.3,16.2,4.9,3.5.4,7,.4,10.5.3,3.5-.2,7-.6,10.5-1.4,5.2-1.3,10.1-3.5,13.9-7.3s4-5.2,4.9-8.5c.9-3.4,1.1-6.7.6-10.2-.4-2.4-1-4.5-2.3-6.5M568.6,65.1c-.4-2.4-1-4.5-2.3-6.5-2.1-3.2-5-5.5-8.4-7.2-3-1.4-6-2.4-9.3-3.2-4.9-1.2-9.9-2.2-14.9-3.3-3.5-.8-6.9-1.7-10.2-3.3-4.2-2.1-5.1-6.5-3.5-10.1,1-2.3,3-3.5,5.1-4.3,4-1.6,8.2-1.8,12.4-1.4,3.1.3,5.9,1.3,8.4,3.2,2.3,1.8,3.7,4,4.3,6.8.3,1.1.4,2.2.6,3.4l16.1-2.2c-.2-2.2-.7-4.9-1.5-7.3-1.8-5-4.9-8.9-9.4-11.8-4.5-3-9.6-4.4-14.9-5.1-3.5-.4-6.9-.4-10.4-.3-3.3.2-6.4.6-9.5,1.4-4.3,1.1-8.3,2.8-11.8,5.6-3.3,2.7-5.5,5.9-6.6,10.1-.8,3-.8,5.9-.4,8.9.3,2.6,1.1,5,2.5,7.3,2.3,3.5,5.3,6.1,9.1,7.9,2,.9,4,1.6,6.1,2.3,5.2,1.7,10.6,2.6,16.1,3.6,3.5.7,6.9,1.6,10.2,3,1.4.6,2.8,1.3,3.8,2.5,1.4,1.6,1.8,3.5,1.5,5.5-.3,2.4-1.3,4.2-3.2,5.7-2.4,1.8-5.2,2.5-8.1,2.9-2.9.4-5.7.3-8.6,0-3.3-.4-6.4-1.2-9.2-3-2.7-1.7-4.4-4-5.2-7.1-.2-.9-.4-1.9-.6-2.9l-16.4,2.2c0,2.2.6,4.9,1.3,6.9,1.9,5.3,5.3,9.2,10.1,12,4.9,3,10.5,4.3,16.2,4.9,3.5.4,7,.4,10.5.3,3.5-.2,7-.6,10.5-1.4,5.2-1.3,10.1-3.5,13.9-7.3,2.4-2.4,4-5.2,4.9-8.5.9-3.4,1.1-6.7.6-10.2M303.2,32.2c-1.3-4.4-3.5-8.3-6.8-11.4-4.1-3.8-9.1-6.1-14.5-7.4s-11.7-1.5-17.3-.9c-4,.4-8,1.3-11.7,3-5.6,2.6-10.3,6.3-13.2,11.8-1.5,2.7-2.4,5.5-2.8,8.6-.3,2.5-.6,4.9-.6,7.5v47.5h16.9v-46.1c0-3,.2-6,1.2-8.9,1.7-4.7,4.8-7.7,9.7-8.9,4-1,8.9-1,12.8,0,4.8,1.3,8.1,4.2,9.7,9,.9,2.9,1.2,5.7,1.2,8.7v46.2h16.9v-47.6c0-3.7-.3-7.4-1.4-10.9M222.4,14h-16.9v46.1c0,3-.2,6-1.2,8.9-1.7,4.7-4.8,7.7-9.7,8.9-4,1-10.4,1-14.4,0-4.8-1.3-8.1-4.2-9.7-9-.9-2.9-1.2-5.7-1.2-8.7V14h-16.9v47.6c0,3.7.3,7.4,1.4,10.9,1.3,4.4,3.5,8.3,6.8,11.4,4.1,3.8,9.1,6.1,14.5,7.4s13.2,1.5,18.8.9c4-.4,8-1.3,11.7-3,5.6-2.6,10.3-6.3,13.2-11.8,1.5-2.7,2.4-5.5,2.8-8.6.3-2.5.6-4.9.6-7.5V13.9h.2v.1ZM473.8,29.5c-.4,1-1.7,4.7-3.8,11.3-4.5,13.3-7.7,22.9-9.5,28.7h-.7c-2.8-9.6-6.9-22.7-12.5-39.6l-5.2-15.9h-18.1l26.3,70.9-1.3,2.7c-1.9,4.1-3.8,6.9-6,8.3s-5.6,2.2-10.2,2.2h-5.8v13.5c3.5.2,5.9.3,7.3.3,6.2,0,11.4-.7,15.7-2.2,4.1-1.5,7.8-4,10.8-7.6,3.1-3.5,5.8-8.7,8.3-15.2l28-72.7h-17.7l-5.2,15.4h-.3v-.2l-.1.1Z"/>
      </g>
    </g>
  </g>
</svg>