<?xml version="1.0" encoding="UTF-8"?>
<svg id="Layer_2" data-name="Layer 2" xmlns="http://www.w3.org/2000/svg" viewBox="0 0 568.67 112.08">
  <defs>
    <style>
      .cls-1 {
        isolation: isolate;
      }

      .cls-2 {
        fill: #003134;
      }
    </style>
  </defs>
  <g id="Layer_1-2" data-name="Layer 1">
    <g class="cls-1">
      <g>
        <path class="cls-2" d="M71.01,88.34c-2.2,6.81-11.12,15.62-27.34,16.33C18.03,105.77,0,90.84,0,53.28V0h46.27v59.59c0,18.93,8.51,28.65,24.64,28.65M88.84,0c-9.92,0-17.73,8.01-17.73,17.73v70.51h2.1c24.44,0,44.27-19.73,44.27-44.27V0h-28.65Z"/>
        <path class="cls-2" d="M320.81,52.58V14.12h16.83v76.82h-16.83v-38.46.1ZM416.66,58.49c-2.1-3.21-5.01-5.51-8.41-7.21-3-1.4-6.01-2.4-9.31-3.21-4.91-1.2-9.92-2.2-14.92-3.31-3.51-.8-6.91-1.7-10.22-3.31-4.21-2.1-5.11-6.51-3.51-10.12,1-2.3,3-3.51,5.11-4.31,4.01-1.6,8.21-1.8,12.42-1.4,3.1.3,5.91,1.3,8.41,3.21,2.3,1.8,3.71,4.01,4.31,6.81.3,1.1.4,2.2.6,3.41l16.13-2.2c-.2-2.2-.7-4.91-1.5-7.31-1.8-5.01-4.91-8.91-9.41-11.82-4.51-3-9.62-4.41-14.92-5.11-3.51-.4-6.91-.4-10.42-.3-3.31.2-6.41.6-9.52,1.4-4.31,1.1-8.31,2.8-11.82,5.61-3.31,2.7-5.51,5.91-6.61,10.12-.8,3-.8,5.91-.4,8.91.3,2.6,1.1,5.01,2.5,7.31,2.3,3.51,5.31,6.11,9.11,7.91,2,.9,4.01,1.6,6.11,2.3,5.21,1.7,10.62,2.6,16.13,3.61,3.51.7,6.91,1.6,10.22,3,1.4.6,2.8,1.3,3.81,2.5,1.4,1.6,1.8,3.51,1.5,5.51-.3,2.4-1.3,4.21-3.21,5.71-2.4,1.8-5.21,2.5-8.11,2.9s-5.71.3-8.61,0c-3.31-.4-6.41-1.2-9.21-3-2.7-1.7-4.41-4.01-5.21-7.11-.2-.9-.4-1.9-.6-2.9l-16.43,2.2c0,2.2.6,4.91,1.3,6.91,1.9,5.31,5.31,9.21,10.12,12.02,4.91,3,10.52,4.31,16.23,4.91,3.51.4,7.01.4,10.52.3,3.51-.2,7.01-.6,10.52-1.4,5.21-1.3,10.12-3.51,13.92-7.31s4.01-5.21,4.91-8.51c.9-3.41,1.1-6.71.6-10.22-.4-2.4-1-4.51-2.3-6.51M568.6,65.1c-.4-2.4-1-4.51-2.3-6.51-2.1-3.21-5.01-5.51-8.41-7.21-3-1.4-6.01-2.4-9.31-3.21-4.91-1.2-9.92-2.2-14.92-3.31-3.51-.8-6.91-1.7-10.22-3.31-4.21-2.1-5.11-6.51-3.51-10.12,1-2.3,3-3.51,5.11-4.31,4.01-1.6,8.21-1.8,12.42-1.4,3.1.3,5.91,1.3,8.41,3.21,2.3,1.8,3.71,4.01,4.31,6.81.3,1.1.4,2.2.6,3.41l16.13-2.2c-.2-2.2-.7-4.91-1.5-7.31-1.8-5.01-4.91-8.91-9.41-11.82-4.51-3-9.62-4.41-14.92-5.11-3.51-.4-6.91-.4-10.42-.3-3.31.2-6.41.6-9.52,1.4-4.31,1.1-8.31,2.8-11.82,5.61-3.31,2.7-5.51,5.91-6.61,10.12-.8,3-.8,5.91-.4,8.91.3,2.6,1.1,5.01,2.5,7.31,2.3,3.51,5.31,6.11,9.11,7.91,2,.9,4.01,1.6,6.11,2.3,5.21,1.7,10.62,2.6,16.13,3.61,3.51.7,6.91,1.6,10.22,3,1.4.6,2.8,1.3,3.81,2.5,1.4,1.6,1.8,3.51,1.5,5.51-.3,2.4-1.3,4.21-3.21,5.71-2.4,1.8-5.21,2.5-8.11,2.9-2.9.4-5.71.3-8.61,0-3.31-.4-6.41-1.2-9.21-3-2.7-1.7-4.41-4.01-5.21-7.11-.2-.9-.4-1.9-.6-2.9l-16.43,2.2c0,2.2.6,4.91,1.3,6.91,1.9,5.31,5.31,9.21,10.12,12.02,4.91,3,10.52,4.31,16.23,4.91,3.51.4,7.01.4,10.52.3,3.51-.2,7.01-.6,10.52-1.4,5.21-1.3,10.12-3.51,13.92-7.31,2.4-2.4,4.01-5.21,4.91-8.51.9-3.41,1.1-6.71.6-10.22M303.18,32.25c-1.3-4.41-3.51-8.31-6.81-11.42-4.11-3.81-9.11-6.11-14.52-7.41s-11.72-1.5-17.33-.9c-4.01.4-8.01,1.3-11.72,3-5.61,2.6-10.32,6.31-13.22,11.82-1.5,2.7-2.4,5.51-2.8,8.61-.3,2.5-.6,4.91-.6,7.51v47.48h16.93v-46.07c0-3,.2-6.01,1.2-8.91,1.7-4.71,4.81-7.71,9.72-8.91,4.01-1,8.91-1,12.82,0,4.81,1.3,8.11,4.21,9.72,9.01.9,2.9,1.2,5.71,1.2,8.71v46.17h16.93v-47.58c0-3.71-.3-7.41-1.4-10.92M222.35,14.02h-16.93v46.07c0,3-.2,6.01-1.2,8.91-1.7,4.71-4.81,7.71-9.72,8.91-4.01,1-10.42,1-14.42,0-4.81-1.3-8.11-4.21-9.72-9.01-.9-2.9-1.2-5.71-1.2-8.71V14.02h-16.93v47.58c0,3.71.3,7.41,1.4,10.92,1.3,4.41,3.51,8.31,6.81,11.42,4.11,3.81,9.11,6.11,14.52,7.41s13.22,1.5,18.83.9c4.01-.4,8.01-1.3,11.72-3,5.61-2.6,10.32-6.31,13.22-11.82,1.5-2.7,2.4-5.51,2.8-8.61.3-2.5.6-4.91.6-7.51V13.92h0l.2.1ZM473.85,29.55c-.4,1-1.7,4.71-3.81,11.32-4.51,13.32-7.71,22.94-9.52,28.75h-.7c-2.8-9.62-6.91-22.74-12.52-39.56l-5.21-15.93h-18.13l26.34,70.91-1.3,2.7c-1.9,4.11-3.81,6.91-6.01,8.31s-5.61,2.2-10.22,2.2h-5.81v13.52c3.51.2,5.91.3,7.31.3,6.21,0,11.42-.7,15.72-2.2,4.11-1.5,7.81-4.01,10.82-7.61,3.1-3.51,5.81-8.71,8.31-15.22l28.04-72.72h-17.73l-5.21,15.42h-.3l-.1-.2Z"/>
      </g>
    </g>
  </g>
</svg>