<?xml version="1.0" encoding="UTF-8"?>
<svg id="Layer_2" data-name="Layer 2" xmlns="http://www.w3.org/2000/svg" viewBox="0 0 43.1 43.2">
  <defs>
    <style>
      .cls-1 {
        fill: #003134;
      }
    </style>
  </defs>
  <g id="Layer_1-2" data-name="Layer 1">
    <path class="cls-1" d="M35.44,43.2H7.76c-4.32,0-7.76-3.53-7.76-7.76V7.76C0,3.53,3.53,0,7.76,0h27.59c4.32,0,7.76,3.53,7.76,7.76v27.59c0,4.32-3.53,7.76-7.76,7.76h0l.1.1ZM7.76,4.52c-1.77,0-3.34,1.47-3.34,3.34v27.59c0,1.77,1.47,3.34,3.34,3.34h27.59c1.77,0,3.34-1.47,3.34-3.34V7.76c0-1.77-1.47-3.34-3.34-3.34H7.76v.1Z"/>
    <polygon class="cls-1" points="14.04 17.08 23.07 17.08 12.57 27.59 15.61 30.63 26.12 20.13 26.12 29.16 30.93 29.16 30.93 12.27 14.04 12.27 14.04 17.08"/>
  </g>
</svg>